<svg width="256" height="256" viewBox="0 0 256 256" fill="none" xmlns="http://www.w3.org/2000/svg">
<path fill-rule="evenodd" clip-rule="evenodd" d="M77.9075 66.7203L67.133 38.5408C66.4775 36.8265 64.0523 36.8265 63.3968 38.5408L24.5972 140.017C23.9755 141.643 25.5838 143.232 27.2021 142.59L51.0182 133.153L77.9075 66.7203Z" fill="white"/>
<path fill-rule="evenodd" clip-rule="evenodd" d="M115.346 83.5151L99.6516 44.7417C98.9772 43.0756 96.6182 43.0756 95.9438 44.7417L44.1998 172.58C43.5465 174.194 45.1243 175.814 46.7548 175.203L81.4175 162.228L115.346 83.5151Z" fill="white"/>
<path d="M149.16 38.3247C149.85 36.7022 152.15 36.7022 152.84 38.3247L229.214 217.803C229.896 219.406 228.344 221.054 226.703 220.47L151.671 193.754C151.237 193.6 150.763 193.6 150.329 193.754L75.2973 220.47C73.6557 221.054 72.1038 219.406 72.7861 217.803L149.16 38.3247Z" fill="white"/>
</svg>
